<?xml version="1.0" encoding="UTF-8" standalone="no"?>
<!-- Created with Inkscape (http://www.inkscape.org/) -->

<svg
   xmlns:dc="http://purl.org/dc/elements/1.1/"
   xmlns:cc="http://creativecommons.org/ns#"
   xmlns:rdf="http://www.w3.org/1999/02/22-rdf-syntax-ns#"
   xmlns:svg="http://www.w3.org/2000/svg"
   xmlns="http://www.w3.org/2000/svg"
   xmlns:sodipodi="http://sodipodi.sourceforge.net/DTD/sodipodi-0.dtd"
   xmlns:inkscape="http://www.inkscape.org/namespaces/inkscape"
   width="1000"
   height="1000"
   id="svg2"
   version="1.1"
   inkscape:version="0.48.4 r9939"
   sodipodi:docname="Emblem_of_the_Provisional_Government_of_the_People's_Republic_of_Bangladesh.svg">
  <defs
     id="defs4" />
  <sodipodi:namedview
     id="base"
     pagecolor="#ffffff"
     bordercolor="#666666"
     borderopacity="1.0"
     inkscape:pageopacity="0.0"
     inkscape:pageshadow="2"
     inkscape:zoom="0.803"
     inkscape:cx="500"
     inkscape:cy="500"
     inkscape:document-units="px"
     inkscape:current-layer="layer1"
     showgrid="false"
     inkscape:window-width="1680"
     inkscape:window-height="998"
     inkscape:window-x="-8"
     inkscape:window-y="-8"
     inkscape:window-maximized="1" />
  <metadata
     id="metadata7">
    <rdf:RDF>
      <cc:Work
         rdf:about="">
        <dc:format>image/svg+xml</dc:format>
        <dc:type
           rdf:resource="http://purl.org/dc/dcmitype/StillImage" />
        <dc:title />
      </cc:Work>
    </rdf:RDF>
  </metadata>
  <g
     inkscape:label="1. réteg"
     inkscape:groupmode="layer"
     id="layer1"
     transform="translate(0,-52.362183)">
    <g
       id="g3864"
       transform="matrix(2.8571429,0,0,2.8571429,-4.2257501e-6,-1954.387)">
      <path
         id="path3961"
         d="m 212.13204,914.47638 c 0,37.09981 -34.82407,67.17515 -77.78174,67.17515 -42.957676,0 -77.78175,-30.07534 -77.78175,-67.17515 0,-37.09981 34.824074,-67.17515 77.78175,-67.17515 42.95767,0 77.78174,30.07534 77.78174,67.17515 z"
         style="fill:#ffffff;stroke:#006a4e;stroke-width:2.09519315;stroke-miterlimit:4;stroke-opacity:1"
         transform="matrix(2.217744,0,0,2.5679141,-122.95456,-1470.9346)"
         inkscape:connector-curvature="0" />
      <g
         transform="translate(62.500008,-62.500001)"
         id="g4022">
        <path
           transform="matrix(2.2728432,0,0,2.7163246,-227.29592,-1481.0427)"
           inkscape:connector-curvature="0"
           style="fill:#f42a41;fill-opacity:1;stroke:none"
           d="m 199.00005,891.24286 c 0,22.87357 -22.16077,41.41625 -49.49747,41.41625 -27.3367,0 -49.49748,-18.54268 -49.49748,-41.41625 0,-22.87357 22.16078,-41.41626 49.49748,-41.41626 27.3367,0 49.49747,18.54269 49.49747,41.41626 z"
           id="path3963" />
        <path
           inkscape:connector-curvature="0"
           style="fill:#ff9900;fill-opacity:1"
           d="m 165.33347,1026.5368 c -0.35724,-0.7515 -1.1106,-2.1275 -1.67417,-3.0579 -0.56357,-0.9303 -1.03101,-2.0432 -1.03877,-2.4729 -0.0107,-0.5903 -0.50439,-1.3459 -2.01881,-3.0898 l -2.00464,-2.3084 -0.31978,-2.3379 c -0.23209,-1.6968 -0.58742,-2.9016 -1.29566,-4.3931 -0.87019,-1.8324 -1.07657,-2.0831 -1.90457,-2.3131 -0.51075,-0.1419 -1.06594,-0.2586 -1.23373,-0.2594 -0.5751,-0.01 -0.87711,-1.5978 -0.61104,-3.2271 0.20452,-1.2525 0.1755,-1.661 -0.15818,-2.2258 -0.38711,-0.6555 -0.36501,-0.7871 0.42053,-2.49978 1.04101,-2.26969 1.27046,-4.29215 0.68861,-6.07095 -0.23383,-0.71494 -0.4252,-1.49574 -0.4252,-1.7352 0,-0.2394 -0.41664,-1.27828 -0.92587,-2.30867 -0.92031,-1.86215 -1.18406,-3.24596 -0.78581,-4.12267 0.15896,-0.35005 0.11385,-0.42216 -0.19103,-0.30521 -0.73693,0.28282 -1.39297,-0.74954 -1.59154,-2.50425 -0.24378,-2.15477 -1.18434,-4.3663 -2.81188,-6.61152 -0.7223,-0.99647 -1.42037,-2.16759 -1.55126,-2.60246 -0.33261,-1.10531 -4.14669,-4.30391 -5.13208,-4.30391 -0.39752,0 -0.93724,-0.23698 -1.19936,-0.52661 -0.35275,-0.38982 -0.52814,-0.4432 -0.67506,-0.20554 -0.14991,0.24255 -0.32507,0.20649 -0.71612,-0.14738 -0.37581,-0.34014 -0.63973,-0.40016 -0.96311,-0.2192 -0.25633,0.14343 -1.94935,0.19462 -3.9874,0.12048 -3.46494,-0.12594 -3.57322,-0.14782 -4.97846,-1.00659 -1.23412,-0.7542 -1.674,-0.87913 -3.12294,-0.88706 -0.96835,-0.006 -1.96346,-0.16757 -2.33702,-0.38115 -1.06914,-0.61116 -1.98917,-0.47053 -3.05713,0.46732 -1.71034,1.50199 -2.2918,1.7761 -3.10894,1.46537 -0.39876,-0.15159 -1.10233,-0.20486 -1.56358,-0.11829 -0.64564,0.1211 -0.96559,0.0304 -1.39067,-0.39482 -0.30364,-0.30364 -0.59884,-0.50535 -0.65599,-0.4482 -0.24491,0.24491 0.55395,1.74437 1.04968,1.97027 0.29836,0.1359 0.76163,0.70076 1.02944,1.25516 0.2678,0.55446 0.5868,1.2114 0.70886,1.45997 0.12212,0.24851 0.22196,0.78733 0.22196,1.19734 0,0.49022 0.50108,1.44371 1.46363,2.78527 2.12124,2.95639 2.35366,4.17848 1.36181,7.16085 -0.40652,1.22243 -0.91862,2.06511 -1.88905,3.10843 -0.73226,0.78722 -1.61808,2.05515 -1.96846,2.81762 -0.65622,1.42791 -0.84544,1.51352 -2.13908,0.96801 -0.62314,-0.26286 -2.18919,2.20421 -2.40992,3.79648 -0.0969,0.69924 -0.38278,1.40136 -0.68017,1.67046 -0.28215,0.25531 -0.58084,0.88852 -0.66375,1.40709 -0.13922,0.87069 -0.27006,0.98916 -1.70944,1.54727 -1.53253,0.59428 -1.57596,0.59659 -2.59425,0.13736 -0.90174,-0.40663 -1.01694,-0.55344 -0.89094,-1.13569 l 0.14461,-0.66875 -0.42018,0.58556 c -0.48606,0.67725 -0.84173,0.72906 -1.53332,0.22331 -0.38666,-0.28271 -0.42936,-0.44173 -0.19451,-0.72467 0.16543,-0.19935 0.33671,-1.05626 0.38053,-1.90423 0.072,-1.39235 0.14276,-1.55925 0.73035,-1.7217 0.52582,-0.14546 0.4419,-0.18489 -0.43791,-0.20587 -0.88824,-0.0214 -1.12275,-0.13365 -1.27462,-0.6115 l -0.18608,-0.58556 -0.26156,0.58556 c -0.66246,1.48303 -1.743526,-0.14597 -1.743526,-2.62721 0,-0.93566 -0.09956,-1.76271 -0.221288,-1.83791 -0.121725,-0.0753 -0.295875,-1.01869 -0.387,-2.09661 -0.142087,-1.68109 -0.09225,-2.08012 0.350494,-2.80631 0.548325,-0.89933 0.6912,-2.01763 0.257794,-2.01763 -0.1431,0 -0.260213,0.21949 -0.260213,0.48774 0,0.26826 -0.307744,1.03832 -0.683887,1.7113 l -0.683888,1.22366 0.445556,1.6461 c 0.582469,2.15184 0.356625,4.56024 -0.427612,4.56024 -0.462769,0 -0.471881,0.0371 -0.100125,0.40894 0.240525,0.24052 0.409669,0.8568 0.410681,1.49642 0,0.6471 0.211106,1.4036 0.518794,1.86817 0.711675,1.0746 0.651037,1.57433 -0.235463,1.94158 -0.4158,0.17219 -0.809943,0.51942 -0.875868,0.77159 -0.09118,0.34875 -0.4968,0.49781 -1.695263,0.62308 -2.522025,0.26358 -3.858131,-0.46541 -3.533456,-1.92792 0.11025,-0.49668 0.08117,-0.54618 -0.1395,-0.2372 -0.497925,0.69705 -0.306225,1.24402 0.7542,2.15167 1.263319,1.08135 1.375537,1.89737 0.293625,2.13497 -0.411019,0.0903 -1.044225,0.0897 -1.407094,0 -0.612337,-0.15367 -0.656775,-0.10327 -0.618919,0.70234 0.03431,0.72562 -0.05878,0.882 -0.566212,0.95389 -0.789863,0.11188 -1.508063,-0.55643 -1.717538,-1.59807 -0.0918,-0.45658 -0.235406,-1.15869 -0.319162,-1.56037 -0.1116,-0.53539 0,-0.89083 0.413325,-1.33223 0.770231,-0.81984 1.011037,-1.88105 0.695306,-3.06388 -0.375919,-1.40838 -0.802125,-1.22152 -0.835931,0.36647 -0.018,0.83683 -0.154294,1.39438 -0.357863,1.46222 -0.8811,0.29374 -1.247962,1.02403 -1.113525,2.21676 0.1143,1.01379 0.03375,1.30803 -0.549168,2.00053 -0.375807,0.44657 -0.683213,0.92002 -0.683213,1.05221 0,0.39015 -0.969694,0.27439 -1.412775,-0.16869 -0.468956,-0.46902 -0.591075,-3.87192 -0.148669,-4.14529 0.1431,-0.0885 0.260213,-0.49838 0.260213,-0.91086 0,-0.41253 -0.117113,-0.82243 -0.260213,-0.91085 -0.143156,-0.0885 -0.260268,0.0749 -0.260268,0.36315 0,0.28822 -0.292782,0.8168 -0.650588,1.17461 -0.357862,0.35786 -0.650644,0.87064 -0.650644,1.13957 0,0.26893 -0.08781,0.57695 -0.195131,0.68456 -0.107381,0.10755 -0.220275,0.68338 -0.250987,1.27952 -0.161494,3.14049 -0.472782,3.81649 -1.757532,3.81649 -1.023187,0 -1.400231,-0.6628 -0.904275,-1.5895 0.242775,-0.4536 0.210375,-0.84386 -0.160762,-1.93567 -0.392513,-1.1547 -0.531225,-1.3261 -0.891281,-1.10126 -0.307013,0.19175 -0.6462,0.15266 -1.211288,-0.13956 -0.693394,-0.35859 -0.825244,-0.62004 -1.131694,-2.24415 -0.259481,-1.37503 -0.274162,-1.99778 -0.05839,-2.47134 0.303019,-0.66505 0.145012,-2.40357 -0.240075,-2.64156 -0.328331,-0.20295 -0.275681,-2.29596 0.06643,-2.63807 0.215269,-0.21527 0.164194,-0.52796 -0.195187,-1.19481 -0.6858,-1.27254 -1.696838,-3.33658 -1.936238,-3.95274 -0.331144,-0.85236 -0.477394,-2.76356 -0.256669,-3.35374 0.328669,-0.87885 -0.410343,-2.9898 -1.167468,-3.33478 -0.744244,-0.33907 -0.801844,-0.75943 -0.224832,-1.64008 0.22815,-0.34819 0.363263,-0.78322 0.300319,-0.96677 -0.063,-0.18348 -0.01462,-0.68495 0.107944,-1.11437 0.138037,-0.48425 0.106369,-1.30286 -0.08342,-2.15566 -0.233044,-1.0476 -0.233606,-1.44726 0,-1.67862 0.375525,-0.37547 0.404606,-2.54165 0.03431,-2.54165 -0.148219,0 -0.490782,-0.51632 -0.761232,-1.14728 -0.270506,-0.63101 -0.694406,-1.26067 -0.942018,-1.39927 -0.371588,-0.20796 -0.440494,-0.58439 -0.394594,-2.15612 0.05119,-1.7568 0.12285,-1.9786 0.924581,-2.866 0.4779,-0.52903 0.945506,-1.20302 1.03905,-1.49782 0.09354,-0.29475 0.421481,-0.61571 0.728663,-0.7132 0.899268,-0.28541 -2.534007,-1.43623 -3.721613,-1.24745 -0.556031,0.0884 -1.297181,-0.009 -1.859737,-0.2439 -0.801507,-0.33486 -0.961707,-0.54658 -1.119263,-1.47926 -0.160987,-0.95288 -0.09951,-1.17653 0.493481,-1.79545 0.422382,-0.44094 0.677307,-1.00125 0.677307,-1.48882 0,-0.42998 0.171956,-1.00913 0.382106,-1.287 0.21015,-0.27782 0.385819,-0.72822 0.390375,-1.00092 0.0079,-0.47716 -0.01125,-0.47829 -0.505575,-0.0309 -0.497025,0.44977 -0.521775,0.44437 -0.75375,-0.16577 -0.131906,-0.34701 -0.716794,-0.96137 -1.299769,-1.36536 -0.582919,-0.40399 -1.1331,-0.9653 -1.22265,-1.24734 -0.08949,-0.28204 -0.478294,-0.6228 -0.863944,-0.75724 -0.947137,-0.33013 -1.494056,-2.0745 -1.099012,-3.50522 0.150187,-0.54388 0.20475,-1.26107 0.121275,-1.59373 -0.08409,-0.33508 -2.25e-4,-0.78739 0.1881,-1.01424 0.186919,-0.22528 0.404887,-0.89713 0.484481,-1.49305 0.133875,-1.00299 0.212288,-1.0935 1.055475,-1.2177 0.500963,-0.0737 1.300219,-0.36652 1.77615,-0.65058 0.8154,-0.48662 0.85815,-0.58399 0.740475,-1.68596 -0.06862,-0.64323 -0.01294,-1.37826 0.123413,-1.63339 0.182137,-0.34031 0.1062,-0.6634 -0.285019,-1.21286 -0.760444,-1.06797 -0.76905,-3.6485 -0.01294,-3.84626 0.401513,-0.10501 0.519132,-0.3522 0.514688,-1.08168 -0.0084,-1.36264 -0.760894,-2.2236 -1.991419,-2.27817 -3.635494,-0.16126 -4.165031,-0.33973 -6.8652,-2.31364 -1.371319,-1.00246 -3.341981,-2.10878 -5.131631,-2.8809 l -2.905425,-1.25348 -0.143663,-1.18443 c -0.07903,-0.65144 -0.48555,-1.83682 -0.903375,-2.63417 l -0.759712,-1.44974 0.652781,-1.28282 c 1.075725,-2.11377 1.277494,-2.41449 2.003569,-2.98557 0.79515,-0.62548 0.892462,-1.42181 0.259256,-2.1215 -0.533362,-0.58932 -0.335925,-0.79474 1.276931,-1.3285 1.330707,-0.44041 1.338413,-0.43659 2.412338,1.19858 0.143156,0.21794 0.611606,0.4674 1.041019,0.55436 0.712068,0.14421 0.843637,0.0537 1.496362,-1.02927 0.393638,-0.65306 0.715669,-1.37329 0.715669,-1.60051 0,-0.22723 0.362812,-1.04724 0.806231,-1.82224 0.7065,-1.23483 0.794981,-1.60597 0.715669,-3.00103 -0.08814,-1.54903 -0.07065,-1.59862 0.647887,-1.83984 0.560475,-0.18818 0.988875,-0.13494 1.778063,0.22093 0.834525,0.37632 1.137488,0.40778 1.535231,0.15939 0.701775,-0.43828 3.157988,-0.39095 3.770888,0.0726 0.762806,0.57697 1.810012,0.49086 2.273287,-0.1869 l 0.400219,-0.58554 1.049344,0.58554 c 0.577125,0.32206 1.1538,0.58554 1.281431,0.58554 0.127631,0 0.385369,-0.46436 0.572681,-1.03194 0.187313,-0.56757 0.615938,-1.29064 0.952481,-1.60682 0.8271,-0.77703 0.770682,-1.00464 -0.249187,-1.00464 -0.473569,0 -1.088438,-0.17195 -1.366256,-0.38209 -0.277819,-0.21015 -0.691932,-0.38581 -0.92025,-0.39037 -0.558507,-0.0111 -1.276482,-0.83973 -1.276482,-1.47311 0,-0.28215 -0.127968,-0.64097 -0.284343,-0.79737 -0.20565,-0.20564 -0.20565,-0.43143 0,-0.81567 0.395887,-0.73978 0.349987,-1.11577 -0.227925,-1.86675 -0.400725,-0.5208 -0.565706,-0.5857 -0.826988,-0.32531 -0.179493,0.17892 -0.557156,0.32531 -0.839306,0.32531 -0.282206,0 -0.734794,0.2007 -1.005862,0.446 -0.466763,0.42244 -0.550407,0.41623 -1.581975,-0.11759 -0.599007,-0.30996 -1.518132,-0.63891 -2.042494,-0.73098 -1.013682,-0.17798 -1.90215,-0.84188 -2.148525,-1.60552 -0.08241,-0.25533 -0.479981,-0.65142 -0.883519,-0.8802 -0.629156,-0.35668 -0.718594,-0.54579 -0.627469,-1.32661 0.09743,-0.83444 0,-0.98861 -1.153687,-1.84232 -0.693,-0.51242 -1.830882,-1.51528 -2.528607,-2.22857 l -1.268606,-1.2969 -1.160212,0.49733 c -1.558688,0.66813 -1.764113,0.63679 -2.351475,-0.35872 -0.635007,-1.0763 -0.958332,-4.06242 -0.460463,-4.25345 0.187425,-0.0719 0.4698,-0.64317 0.627469,-1.26945 0.157725,-0.62626 0.537806,-1.31453 0.844706,-1.52947 0.493819,-0.34588 0.52245,-0.47639 0.249469,-1.13545 -0.25065,-0.60515 -0.233606,-0.88813 0.09101,-1.5107 0.219713,-0.42131 0.402188,-0.88315 0.405563,-1.02628 0.0056,-0.14314 0.969356,-0.67729 2.146781,-1.18698 2.026744,-0.87741 2.148806,-0.97665 2.293144,-1.86438 0.214819,-1.3218 0.909225,-2.28363 1.648575,-2.28363 0.401344,0 0.66285,-0.18582 0.754481,-0.53609 0.120375,-0.46031 0.2718,-0.51139 1.071281,-0.3614 1.086357,0.20379 1.121007,0.0824 0.43425,-1.51988 -0.425981,-0.99373 -0.633037,-1.18482 -1.449843,-1.33805 -0.524082,-0.0983 -1.120219,-0.24298 -1.324744,-0.32147 -0.227306,-0.0872 -0.371925,0.0199 -0.371925,0.2755 0,0.64224 -0.756394,0.49604 -1.0773,-0.20822 -0.22365,-0.49088 -0.18495,-0.88953 0.178931,-1.84235 0.549844,-1.43973 1.864069,-3.33383 2.178394,-3.13957 0.121781,0.0753 0.3015,0.67124 0.399487,1.32439 0.144675,0.96501 0.307294,1.23668 0.867432,1.44967 0.379181,0.14415 1.161618,0.64841 1.738743,1.12056 0.577125,0.47215 1.342069,0.94636 1.699932,1.05379 0.867487,0.26046 2.862675,2.20921 2.862675,2.79608 0,0.25647 0.108731,0.4663 0.24165,0.4663 0.354712,0 1.059581,0.76513 1.059581,1.15016 0,0.18274 -0.46845,0.54349 -1.040963,0.80167 -0.572568,0.25817 -1.041018,0.56584 -1.041018,0.68369 0,0.21462 0.899887,-0.0602 1.833918,-0.56009 0.806063,-0.43139 1.690369,-0.0412 2.165682,0.9556 0.468843,0.98316 1.024087,1.04883 1.1583,0.13699 0.05231,-0.3542 0.333956,-0.62769 0.756112,-0.73365 0.547031,-0.13729 0.799369,-0.0151 1.3482,0.65254 0.493088,0.59985 0.891675,0.82081 1.477631,0.81909 0.441338,-10e-4 0.866757,-0.0667 0.945394,-0.1453 0.182813,-0.18279 -0.380531,-1.41378 -0.648169,-1.41647 -0.110925,-10e-4 -0.312975,-0.2948 -0.448987,-0.65265 -0.14085,-0.37046 -0.454725,-0.6506 -0.728944,-0.6506 -0.640069,0 -1.61325,-1.06348 -1.61325,-1.76289 0,-0.48803 1.1664,-1.88052 1.575169,-1.88052 0.08201,0 0.480262,0.34564 0.885037,0.76807 0.404719,0.42246 1.070719,0.84165 1.479994,0.93154 0.558225,0.12261 0.744188,0.31448 0.744188,0.76792 0,0.43767 0.215437,0.67958 0.780693,0.87664 0.87075,0.30354 0.96795,0.59535 0.3906,1.17271 -0.346725,0.34673 -0.330412,0.64981 0.146757,2.72215 l 0.536906,2.33197 1.133325,0.43284 c 0.623362,0.23805 1.321256,0.71954 1.550869,1.06997 0.229612,0.35043 0.5877,0.63715 0.795825,0.63715 0.208125,0 0.562893,0.28163 0.7884,0.62583 0.482681,0.73666 1.494562,1.05527 2.182387,0.68716 0.3645,-0.19505 0.574313,-0.15692 0.829688,0.15081 0.243,0.29278 0.622518,0.37423 1.312537,0.28168 0.736144,-0.0987 1.078706,-0.0109 1.417444,0.36338 0.691762,0.76439 1.146712,0.61683 1.146712,-0.37191 0,-0.58656 0.209588,-1.06235 0.65025,-1.47634 0.559913,-0.52605 0.600919,-0.66783 0.2952,-1.02128 -0.731812,-0.84602 -0.7479,-1.82225 -0.04387,-2.6591 0.362869,-0.43124 0.6597,-0.93708 0.6597,-1.1241 0,-0.45325 0.956644,-0.68613 1.268663,-0.30883 0.135731,0.16414 0.286425,0.64921 0.334856,1.07793 0.06975,0.61699 0.238556,0.80688 0.809775,0.91085 0.903488,0.16445 1.746619,1.40028 1.748925,2.56351 0,1.01529 0.897919,2.42157 1.416094,2.22274 0.472894,-0.18147 0.8028,0.38874 0.436669,0.75483 -0.414732,0.41475 -0.357244,0.96625 0.100743,0.96625 0.551532,0 0.492919,0.33138 -0.358031,2.02431 -0.590006,1.17388 -0.697387,1.62517 -0.507375,2.13254 0.132525,0.35396 0.171731,1.05661 0.08713,1.56146 -0.122681,0.732 -5.06e-4,1.15912 0.603169,2.10895 l 0.757069,1.19104 -0.329794,2.45237 c -0.18135,1.3488 -0.555412,3.15502 -0.831206,4.01383 -0.499331,1.55483 -0.499219,1.56621 0.03206,2.68054 0.510132,1.07033 0.573469,1.11231 1.453613,0.9636 0.749194,-0.12658 1.427685,0.0803 3.650285,1.11292 1.78448,0.82908 3.40605,1.37939 4.68186,1.58889 1.07353,0.17628 2.76305,0.68377 3.75457,1.12777 1.73155,0.7754 1.84967,0.7932 2.99278,0.45111 0.65453,-0.19587 2.0101,-0.36542 3.01225,-0.37674 1.0022,-0.0114 1.96819,-0.11081 2.14655,-0.22107 0.17843,-0.11026 0.56329,-0.0332 0.85523,0.17131 0.41681,0.29195 0.79082,0.31633 1.74156,0.11355 0.85595,-0.18254 1.3478,-0.17268 1.67821,0.0336 0.74144,0.46302 3.56929,0.33737 5.41907,-0.24079 0.93038,-0.29078 2.96764,-0.62908 4.52728,-0.75177 2.56011,-0.20139 2.9142,-0.1752 3.64343,0.26947 0.44426,0.2709 1.19211,0.49298 1.66185,0.49352 0.4698,5.4e-4 1.27457,0.17663 1.78841,0.39134 1.28408,0.53651 2.66023,0.48739 3.67476,-0.13117 l 0.85219,-0.51959 0.23445,0.61663 c 0.31798,0.83635 1.49917,1.06378 2.35518,0.45349 0.86507,-0.61673 1.67406,-0.7977 4.51322,-1.00952 4.7128,-0.35162 6.54806,-0.254 7.42573,0.39498 0.43555,0.32204 1.01048,0.58554 1.27755,0.58554 0.26713,0 0.75904,0.29099 1.09317,0.64663 0.33412,0.35564 1.02791,0.7172 1.54175,0.80345 1.5295,0.25675 1.84517,0.38807 1.84517,0.76774 0,0.20676 0.39026,0.43425 0.91328,0.53237 0.67201,0.12607 0.95445,0.33541 1.0692,0.79252 0.0857,0.34166 0.31882,0.62118 0.51806,0.62118 0.19918,0 0.36214,0.11712 0.36214,0.26026 0,0.14312 0.15305,0.26024 0.3402,0.26024 0.18708,0 0.71409,0.30976 1.17106,0.68836 0.7051,0.58414 0.83093,0.8624 0.83093,1.83806 0,0.95001 -0.0791,1.13669 -0.45546,1.07478 -0.25048,-0.0412 -0.57656,10e-4 -0.72472,0.0945 -0.14811,0.0932 -0.97335,0.24908 -1.83392,0.34645 -1.43865,0.16276 -1.62956,0.12239 -2.37071,-0.50123 -0.44337,-0.37304 -1.05632,-0.67825 -1.36221,-0.67825 -0.68591,0 -0.98477,0.6854 -0.58089,1.33216 0.4581,0.73353 0.37878,1.30049 -0.60953,4.35769 -0.50096,1.54965 -0.91085,3.13603 -0.91085,3.52528 0,0.46689 -0.26567,0.93129 -0.78075,1.36467 -0.70285,0.59142 -0.7807,0.80807 -0.7807,2.17213 0,1.37247 -0.0754,1.57867 -0.80072,2.18894 -0.62415,0.52518 -1.0832,0.67374 -2.08192,0.67374 -1.38561,0 -1.42251,0.0306 -0.99692,0.82578 0.42643,0.7968 -0.0741,1.14573 -0.88307,0.61565 -0.7947,-0.52074 -1.07589,-0.20685 -0.82755,0.92388 0.16774,0.76374 -0.5067,4.0066 -0.93504,4.49613 -0.25178,0.2877 -1.99378,-1.02902 -2.19342,-1.65792 -0.083,-0.26159 -0.49747,-0.59643 -0.92103,-0.74408 l -0.77012,-0.26846 0,1.25814 c 0,1.19927 -0.0366,1.26352 -0.78154,1.37286 -0.67292,0.0988 -0.85894,-0.0147 -1.33836,-0.81626 l -0.55681,-0.93096 -0.20031,0.65061 c -0.11019,0.35783 -0.27101,0.97124 -0.35741,1.36311 -0.22933,1.04059 -1.95233,1.86938 -3.44762,1.65837 -0.61886,-0.0874 -1.65223,-0.23259 -2.29635,-0.32277 l -1.17107,-0.16397 0,1.22205 c 0,1.728 -0.29655,2.13613 -1.70561,2.34743 -1.06498,0.15971 -1.24363,0.28523 -1.59171,1.11834 -0.22236,0.53217 -0.33739,1.34076 -0.26567,1.86766 0.19322,1.4202 -0.57476,3.66345 -1.37413,4.01355 -1.20229,0.5265 -1.34854,1.0841 -0.39786,1.51723 0.7735,0.35246 0.80747,0.5765 0.18209,1.20189 -0.44955,0.44955 -0.44984,0.50996 -0.007,1.49636 0.25391,0.56537 0.46473,1.3306 0.4685,1.70055 0.006,0.40765 0.30313,0.93668 0.75881,1.34269 0.42289,0.37682 0.95355,1.27828 1.2127,2.05993 0.2534,0.76444 0.63247,1.51628 0.8424,1.67074 0.3065,0.22545 0.32158,0.39324 0.0765,0.85112 -0.16785,0.3137 -0.24919,0.66105 -0.18068,0.77192 0.0685,0.11081 0.3114,1.54299 0.53972,3.18257 0.34909,2.50683 0.5175,3.08362 1.05857,3.62576 0.59676,0.59794 0.64328,0.60739 0.64148,0.1301 0,-0.28299 -0.12049,-1.24475 -0.26534,-2.13727 -0.21015,-1.29516 -0.18618,-1.80743 0.1188,-2.53738 0.21021,-0.50305 0.5094,-0.91463 0.66488,-0.91463 0.43672,0 1.56555,0.80697 1.56555,1.11921 0,0.15322 0.22326,0.52031 0.49612,0.81585 0.58607,0.63472 1.32559,2.99925 1.32559,4.23844 0,0.92328 0.90625,2.41453 1.46734,2.41453 0.18067,0 0.45,0.20497 0.5985,0.4554 0.25189,0.42497 0.30071,0.41833 0.72861,-0.0983 0.28811,-0.34791 0.8793,-0.60604 1.59018,-0.69435 1.30917,-0.16268 2.38168,-1.02735 2.38168,-1.92021 0,-0.35347 0.15604,-0.60525 0.37502,-0.60525 0.67692,0 0.67377,-0.44162 -0.0191,-2.6766 -0.82789,-2.67047 -0.72698,-3.84845 0.50698,-5.91952 0.63478,-1.06543 1.16505,-1.58726 2.10904,-2.07563 1.97117,-1.01975 2.10932,-1.37081 1.60998,-4.09151 -0.49432,-2.69314 -0.51615,-3.42922 -0.13111,-4.41276 0.26904,-0.6872 0.30538,-0.70188 0.58556,-0.23703 0.63759,1.05778 1.80388,2.23695 2.21248,2.23695 0.23563,0 0.75645,-0.41108 1.15734,-0.9135 0.4009,-0.50243 1.01571,-1.10143 1.36626,-1.33116 0.58601,-0.38396 0.68985,-0.38323 1.28801,0.008 0.40416,0.26482 0.65059,0.6705 0.65059,1.07089 0,0.92373 0.36169,0.79475 0.74514,-0.26579 0.32608,-0.90168 0.33508,-0.90607 0.94028,-0.4554 0.53049,0.39494 0.59287,0.61189 0.47306,1.64459 -0.0941,0.81078 -0.006,1.44483 0.27636,1.99091 0.22787,0.44072 0.55226,1.66202 0.72078,2.714 0.16859,1.05205 0.58939,2.40497 0.93516,3.00657 0.76016,1.32243 1.05986,3.63032 0.58635,4.51507 -0.41698,0.77912 -0.36062,2.5866 0.14068,4.51131 0.21291,0.81731 0.38886,2.21231 0.39105,3.09988 0.006,1.84736 0.10091,2.05875 1.3185,2.89305 0.81433,0.558 0.8896,0.72056 0.8896,1.92111 0,1.058 0.16228,1.5417 0.83958,2.50261 0.72872,1.03382 0.8604,1.47494 0.99687,3.33934 0.0864,1.18153 0.26212,2.44097 0.39037,2.79883 0.20346,0.56762 1.62692,8.80088 1.99103,11.51578 0.11565,0.86249 0.0666,0.97589 -0.42194,0.97589 -0.4739,0 -0.52666,0.10215 -0.36984,0.71566 0.10058,0.39364 0.49556,2.06247 0.87778,3.70851 0.65048,2.80159 0.67095,3.07418 0.32108,4.26713 -0.63113,2.15195 0.0343,9.48374 1.21877,13.42944 l 0.74221,2.4723 -0.59124,0.7807 c -0.33142,0.4377 -0.88701,0.8165 -1.26411,0.862 -0.6161,0.074 -0.70908,-0.046 -1.10266,-1.4314 -0.56734,-1.9964 -0.81585,-2.2462 -1.84725,-1.8568 -1.30928,0.4942 -2.36937,-0.09 -2.72498,-1.5025 -0.36073,-1.4327 -1.06537,-1.7337 -1.81817,-0.7767 -0.35302,0.4488 -0.78114,0.6717 -1.29015,0.6717 -0.57544,0 -0.76185,0.1212 -0.76185,0.4952 0,0.2724 -0.41754,0.8302 -0.92784,1.2396 -0.8424,0.6758 -0.90293,0.8099 -0.65728,1.4561 0.18197,0.4786 0.18753,1.1497 0.0169,2.049 -0.44072,2.324 -0.33311,3.4429 0.39701,4.1288 0.4365,0.4101 0.65065,0.8911 0.65065,1.4614 0,0.4675 0.11711,0.9225 0.26021,1.011 0.14316,0.088 0.26027,0.7134 0.26027,1.3887 0,0.7483 0.17724,1.4793 0.45377,1.8715 0.83475,1.1837 1.62816,3.1584 1.62816,4.0524 0,0.7134 -0.10159,0.885 -0.52375,0.885 -0.37586,0 -0.70717,-0.3857 -1.17332,-1.3662 z M 88.333914,990.23823 c -0.08646,-0.0865 -0.147994,0.0672 -0.136688,0.34155 0.01238,0.30319 0.07419,0.36484 0.157219,0.15722 0.07521,-0.18782 0.06598,-0.41231 -0.02025,-0.49877 z m 32.028636,-0.50186 c -0.0968,-0.0967 -0.17589,-0.79712 -0.17589,-1.55638 0,-1.33852 -0.0259,-1.38729 -0.84578,-1.60228 -0.69896,-0.18321 -0.82997,-0.32996 -0.7547,-0.84527 0.0501,-0.34296 0.30678,-0.89775 0.57037,-1.23289 0.77186,-0.98128 1.11431,-3.1946 0.80606,-5.21043 -0.14658,-0.95879 -0.33935,-2.38439 -0.42834,-3.16806 -0.16357,-1.44028 -0.52419,-2.19617 -0.92857,-1.94625 -0.2565,0.15857 -1.28172,-1.73852 -1.28172,-2.37173 0,-0.27405 -0.14073,-0.37456 -0.39037,-0.27877 -0.6214,0.23844 -0.48319,-0.99838 0.23951,-2.14318 0.34644,-0.54878 1.11521,-1.41323 1.70848,-1.92105 1.00553,-0.86068 1.14356,-0.90551 2.0376,-0.66156 1.33228,0.36349 1.48388,0.53646 1.83263,2.09121 0.40567,1.80872 1.45558,4.0437 2.35473,5.01277 0.45929,0.49506 0.83408,1.30455 1.02409,2.21209 0.27304,1.30433 0.22641,1.73154 -0.52565,4.81449 -0.45389,1.86075 -0.83819,3.89464 -0.85394,4.51975 -0.0292,1.161 -0.75436,2.11646 -1.60599,2.11646 -0.20194,0 -0.50051,0.29278 -0.66358,0.65064 -0.16301,0.35781 -0.41648,0.65059 -0.56318,0.65059 -0.1467,0 -0.51721,0.2353 -0.82333,0.52285 -0.30611,0.2876 -0.63568,0.44375 -0.73243,0.347 z m 9.87008,-2.49637 c 0.34245,-1.04575 0.28569,-9.62494 -0.0687,-10.37093 -0.45833,-0.96497 0.15114,-1.79544 1.31771,-1.79544 1.19205,0 1.7172,0.6719 1.7172,2.19729 0,0.85196 0.21577,1.64194 0.68276,2.50003 0.62713,1.15223 0.66808,1.4112 0.50254,3.17768 -0.16555,1.76653 -0.24244,1.95997 -0.94433,2.37459 -0.4203,0.24823 -0.94483,0.80078 -1.16561,1.22777 -0.60154,1.16314 -2.39513,1.7685 -2.04159,0.68901 z m 12.59522,-7.45138 c -0.35781,-0.0978 -0.76292,-0.42975 -0.90017,-0.73778 -0.13725,-0.30808 -0.49933,-0.67387 -0.8046,-0.81298 -0.88729,-0.40427 -1.4422,-1.89501 -1.39332,-3.74338 0.027,-1.02752 -0.11418,-1.9917 -0.3812,-2.6005 -0.70363,-1.60425 -0.50333,-1.7825 1.39736,-1.24363 0.83723,0.23743 1.05564,0.53809 2.70298,3.72105 l 1.79213,3.46281 -0.68935,1.09204 c -0.37918,0.60058 -0.77574,1.08033 -0.88127,1.06605 -0.10558,-0.0141 -0.4847,-0.10592 -0.84257,-0.20368 z m -15.7909,-6.3558 c -0.45478,-0.45737 -1.06661,-1.03349 -1.35962,-1.28031 -0.29306,-0.24688 -0.60243,-0.77383 -0.68754,-1.17113 -0.20813,-0.97143 -0.52639,-1.63276 -1.16786,-2.42673 -0.29481,-0.36495 -0.46778,-0.84145 -0.3843,-1.05897 0.2201,-0.57358 2.3387,-1.53061 3.38838,-1.53061 0.78514,0 1.05115,0.19113 2.08289,1.49641 0.68535,0.8671 1.13602,1.6839 1.07161,1.94226 -0.0611,0.24519 0.0427,0.57341 0.23052,0.72939 0.26004,0.21578 0.38317,0.1525 0.5157,-0.2651 0.14237,-0.44843 0.3483,-0.53404 1.12792,-0.46913 0.88026,0.0734 0.94714,0.13658 0.86693,0.81962 -0.0737,0.62809 -0.0112,0.71612 0.41248,0.58163 0.40567,-0.12876 0.56402,0.0371 0.84386,0.88532 0.49118,1.48826 -0.0158,2.01543 -1.88662,1.9625 -0.75752,-0.0214 -1.59317,0.11346 -1.87808,0.30313 -0.92751,0.61752 -2.26361,0.39949 -3.17627,-0.51828 z"
           id="path1899-9" />
      </g>
      <g
         id="g3854">
        <path
           inkscape:connector-curvature="0"
           id="path4056"
           d="m 37.027754,909.66653 -3.5e-4,9.54888 -9.081401,2.95118 9.081421,2.95111 3.61e-4,9.54891 5.612981,-7.72501 9.08167,2.95043 -5.612422,-7.72544 5.612402,-7.72542 -9.081667,2.95036 z"
           inkscape:transform-center-y="-1.2550631"
           style="fill:#f42a41;fill-opacity:1;fill-rule:evenodd;stroke:none" />
        <path
           inkscape:connector-curvature="0"
           id="path4064"
           d="m 53.748813,950.75925 2.950435,9.08163 -7.724962,5.61305 9.548889,3.6e-4 2.951118,9.08144 2.951104,-9.08142 9.548912,-3.7e-4 -7.725022,-5.613 2.950424,-9.08164 -7.725467,5.61235 z"
           inkscape:transform-center-y="-1.2550631"
           style="fill:#f42a41;fill-opacity:1;fill-rule:evenodd;stroke:none" />
        <path
           style="fill:#f42a41;fill-opacity:1;fill-rule:evenodd;stroke:none"
           inkscape:transform-center-y="-1.2550631"
           d="m 312.97225,909.66653 3.5e-4,9.54888 9.0814,2.95118 -9.08142,2.95111 -3.6e-4,9.54891 -5.61298,-7.72501 -9.08167,2.95043 5.61242,-7.72544 -5.6124,-7.72542 9.08166,2.95036 z"
           id="path4070"
           inkscape:connector-curvature="0" />
        <path
           style="fill:#f42a41;fill-opacity:1;fill-rule:evenodd;stroke:none"
           inkscape:transform-center-y="-1.2550631"
           d="m 296.25119,950.75925 -2.95044,9.08163 7.72497,5.61305 -9.54889,3.6e-4 -2.95112,9.08144 -2.95111,-9.08142 -9.54891,-3.7e-4 7.72502,-5.613 -2.95042,-9.08164 7.72547,5.61235 z"
           id="path4072"
           inkscape:connector-curvature="0" />
      </g>
      <g
         id="g3860">
        <path
           style="font-size:58px;font-style:normal;font-variant:normal;font-weight:bold;font-stretch:normal;text-align:start;line-height:125%;letter-spacing:0px;word-spacing:0px;writing-mode:lr-tb;text-anchor:start;fill:#006a4e;fill-opacity:1;stroke:none;font-family:Shonar Bangla;-inkscape-font-specification:Shonar Bangla Bold"
           d="m 152.487,710.25 c -1.1148,-0.003 -2.22463,0.0919 -3.375,0.28125 -3.2601,0.537 -5.74549,1.63517 -7.40625,3.34375 -1.66071,1.70866 -2.33793,3.51211 -2.03125,5.375 0.29458,1.78845 1.13748,3.04454 2.53125,3.78125 1.39381,0.73676 3.16347,0.937 5.25,0.59375 0.74519,-0.1227 1.60491,-0.30833 2.625,-0.5625 1.02014,-0.25409 1.91111,-0.43974 2.65625,-0.5625 1.2668,-0.20861 2.21124,-0.13627 2.84375,0.21875 0.32939,0.18491 0.62652,0.42717 0.84375,0.71875 -24.77144,2.88627 -47.77159,11.5999 -67.5625,24.75 -0.480334,-0.13112 -1.081833,-0.31556 -1.59375,-0.5 -0.521045,-0.18767 -1.376073,-0.56205 -2.5625,-1.0625 -1.186393,-0.50039 -2.204485,-0.35495 -3.09375,0.40625 l 5.6875,6.65625 c -1.478246,-0.44936 -4.002987,-0.607 -4.78125,-0.5 -0.778232,0.10704 -1.615866,0.56467 -2.5625,1.375 l -1.28125,1.03125 -0.03125,0 c -11.190941,8.82276 -21.139379,19.15229 -29.53125,30.6875 -0.501832,0.0303 -1.571287,-0.0502 -2.125,-0.0625 -0.553688,-0.0122 -1.46603,-0.0589 -2.75,-0.15625 -1.283939,-0.0972 -2.242678,0.33931 -2.84375,1.34375 L 53.112,794.4375 c -6.52077,0.34457 -10.907125,2.39759 -13.15625,6.15625 -1.609255,2.68943 -1.990168,5.4593 -1.15625,8.3125 0.833959,2.85326 2.344101,4.91002 4.53125,6.21875 0.874884,0.52357 1.698335,0.72856 2.46875,0.5625 0.770442,-0.16604 1.388125,-0.64477 1.84375,-1.40625 0.38779,-0.64803 0.62134,-1.53741 0.71875,-2.65625 0.09743,-1.1188 0.293234,-1.93523 0.59375,-2.4375 0.300538,-0.50221 0.693834,-0.7853 1.1875,-0.875 0.493687,-0.0896 0.939879,-0.0354 1.3125,0.1875 0.275428,0.16483 0.863402,2.23721 1.78125,6.21875 L 58.01825,812.5 54.112,797.40625 c 2.318126,-0.19701 4.591778,0.37125 6.84375,1.71875 l 2.21875,1.3125 -0.03125,0.0312 9.03125,5.40625 c -2.706305,0.51485 -4.677232,1.83137 -5.9375,3.9375 -0.368394,0.61567 -0.827467,1.45077 -1.375,2.53125 -0.547542,1.08053 -1.089643,2.03255 -1.59375,2.875 -0.853113,1.42572 -1.839806,2.40138 -3,2.90625 -1.160193,0.5049 -2.319611,0.41892 -3.4375,-0.25 -0.518436,-0.31022 -0.925707,-0.67967 -1.25,-1.09375 l -2.03125,1.5 c 0.781248,0.75352 1.607784,1.38494 2.53125,1.9375 2.34918,1.40569 4.653325,1.84735 6.90625,1.28125 2.252918,-0.56609 4.04469,-1.95402 5.34375,-4.125 0.571963,-0.95586 1.270174,-2.30007 2.09375,-4.0625 0.823555,-1.76241 1.472155,-3.03482 1.9375,-3.8125 0.717374,-1.19887 1.467314,-1.96344 2.28125,-2.3125 0.813909,-0.34901 1.6449,-0.41312 2.5,-0.1875 l 3.25,-2.03125 -4.0625,-2.4375 -24.4375,-14.59375 c 3.475068,-4.75658 7.227081,-9.30685 11.21875,-13.625 0.243686,2.69588 1.232964,5.00912 2.75,6.78125 1.399701,1.63508 3.094715,2.57472 5.125,2.8125 2.03029,0.23783 3.692251,-0.18848 4.96875,-1.28125 0.831871,-0.7121 1.471562,-1.48696 1.90625,-2.34375 0.434678,-0.85672 0.723369,-1.77327 0.90625,-2.75 0.665402,0.2257 1.200845,0.57232 1.59375,1.03125 0.785789,0.91796 1.112882,1.99581 0.96875,3.25 -0.144148,1.25424 -0.940739,2.49096 -2.375,3.71875 -2.007978,1.71892 -4.609557,2.2865 -7.84375,1.6875 -3.234192,-0.59898 -6.575877,-2.84463 -9.96875,-6.75 l -2.5,1.03125 c 0.315114,0.42617 0.637257,0.83152 0.96875,1.21875 4.088593,4.77612 8.281696,7.69475 12.59375,8.8125 4.312055,1.11779 7.876329,0.50026 10.6875,-1.90625 2.10836,-1.80485 3.20151,-3.8211 3.25,-6 0.04846,-2.17886 -0.742034,-4.21741 -2.375,-6.125 -2.074996,-2.42388 -5.091672,-3.5937 -9.0625,-3.5 -0.288722,3.20472 -1.025744,5.318 -2.1875,6.3125 -0.559365,0.47881 -1.134123,0.6838 -1.71875,0.625 -0.584619,-0.0587 -1.10821,-0.3443 -1.5625,-0.875 -0.613897,-0.71711 -0.990763,-1.81796 -1.125,-3.28125 -0.134212,-1.46325 -0.07863,-2.89548 0.125,-4.3125 2.590359,0.26789 4.907325,0.17263 6.96875,-0.25 2.061419,-0.42258 3.876706,-1.29336 5.46875,-2.65625 0.31553,-0.27008 0.608065,-0.53616 0.84375,-0.8125 0.958535,3.00689 2.384838,5.62323 4.3125,7.875 2.283699,2.66776 5.450607,4.99877 9.5,7 l 2.34375,-0.9375 c -2.64263,-1.83856 -4.973039,-3.92389 -6.9375,-6.21875 -2.811685,-3.28443 -4.25632,-7.0252 -4.34375,-11.25 l -6.34375,-1.2812 c -0.723664,1.216 -1.589769,2.26558 -2.59375,3.125 -1.21913,1.04367 -2.576409,1.86765 -4.0625,2.46875 -1.467594,0.59369 -3.994168,0.93813 -6.40625,0.71875 4.946755,-4.97154 10.249469,-9.59638 15.84375,-13.84375 0.04378,-0.0233 0.0763,-0.0412 0.125,-0.0625 1.061266,-0.46397 3.250431,-0.44286 4.78125,0.0625 1.749531,0.57759 3.052381,1.35156 3.875,2.3125 l 12.4375,14.53125 5.90625,-0.78125 -18.8125,-21.9375 c 18.48415,-12.17985 39.79052,-20.43181 62.71875,-23.5625 1.06139,0.78157 2.49554,2.52661 2.625,3.3125 0.1043,0.63344 -0.0376,1.15994 -0.40625,1.59375 -0.36866,0.43387 -1.01867,0.74986 -1.96875,0.90625 -1.19229,0.19639 -2.98456,0.0101 -5.375,-0.5625 -2.39046,-0.57251 -4.20791,-0.76459 -5.4375,-0.5625 -1.13638,0.18719 -2.03088,0.73236 -2.6875,1.625 -0.6566,0.8927 -0.87131,1.88222 -0.6875,3 0.1841,1.11777 0.65956,1.99479 1.4375,2.59375 0.77792,0.59904 1.65024,0.79053 2.65625,0.625 1.00597,-0.16566 1.77717,-0.61711 2.3125,-1.375 0.53534,-0.75786 0.72194,-1.62499 0.5625,-2.59375 -0.043,-0.26078 -0.11043,-0.49484 -0.21875,-0.6875 0.5523,0.10041 1.4673,0.4261 2.71875,0.9375 1.25143,0.51145 2.11289,0.83749 2.59375,0.96875 -2.06851,0.68513 -3.90217,2.06575 -5.5,4.15625 -1.59785,2.09054 -2.23448,4.22672 -1.875,6.40625 0.26079,1.58349 0.93079,2.7991 2,3.65625 1.0692,0.85717 2.28376,1.19012 3.625,0.96875 1.35991,-0.22398 2.37142,-0.81854 3.03125,-1.75 0.65976,-0.93145 0.89647,-1.95071 0.71875,-3.03125 -0.18719,-1.13637 -0.67859,-1.9898 -1.5,-2.5625 -0.82146,-0.57267 -1.86417,-0.73334 -3.09375,-0.53125 0.37126,-0.99873 1.0802,-1.93757 2.09375,-2.8125 1.01352,-0.8749 2.03785,-1.39392 3.0625,-1.5625 0.74515,-0.12271 1.30977,0.0144 1.71875,0.40625 0.40894,0.3919 0.68736,1.0499 0.84375,2 L 159.33075,755.5 c -2.2936,-1.72704 -4.64676,-2.393 -7.03125,-2 -0.65203,0.10739 -1.53038,0.29614 -2.625,0.5625 -1.09465,0.26636 -2.07455,0.47775 -2.96875,0.625 -1.67664,0.27616 -3.04649,-0.0194 -4.125,-0.875 -1.07853,-0.85563 -1.75503,-2.10462 -2.03125,-3.78125 -0.15041,-0.91282 -0.17898,-1.85057 -0.0312,-2.8125 L 137.83075,746.5 c -0.12427,1.68519 -0.0643,3.28495 0.1875,4.8125 0.49707,3.01793 1.67017,5.32287 3.5,6.90625 1.82981,1.58339 4.15569,2.15058 6.96875,1.6875 0.98733,-0.16262 2.38473,-0.50217 4.1875,-1 1.80275,-0.49783 3.13702,-0.8215 4.03125,-0.96875 1.35991,-0.22399 2.4215,-0.1647 3.1875,0.1875 0.76597,0.35221 1.36338,0.90416 1.75,1.625 l 3.625,1.09375 -3.25,-19.5625 c -0.20867,-1.26676 -0.69118,-2.29122 -1.46875,-3.0625 -0.77763,-0.77123 -1.71108,-1.31586 -2.78125,-1.65625 0.92245,-0.32413 1.69771,-0.96051 2.3125,-1.875 0.61499,-0.91446 0.82405,-1.97652 0.625,-3.1875 -0.2133,-1.29491 -1.86564,-3.64786 -3.65625,-4.9375 3.11653,-0.35824 6.26573,-0.61475 9.4375,-0.78125 l 0.0312,0.28125 4.1875,25.375 5.4375,2.40625 -4.75,-28.25 c 1.04727,-0.0214 2.10396,-0.0312 3.15625,-0.0312 0.97986,0 1.96161,0.0131 2.9375,0.0312 l -2.84375,-3.21875 -0.0937,0 c -1.31625,0 -2.62905,0.0299 -3.9375,0.0625 -1.47433,-5.9467 -4.42211,-7.81623 -8.625,-9.875 -2.97598,-1.45779 -6.1556,-2.30404 -9.5,-2.3125 z m -0.0312,4.65625 c 2.66679,0.0179 5.13996,0.51728 7.40625,1.46875 3.45342,1.44994 5.26113,3.40218 6.09375,6.25 -2.34375,0.1282 -4.68498,0.30003 -7,0.53125 -0.63902,-1.60731 -1.60379,-2.88545 -2.90625,-3.8125 -1.51728,-1.07992 -3.45264,-1.41511 -5.78125,-1.03125 -0.59612,0.0982 -1.39874,0.27413 -2.4375,0.53125 -1.03872,0.25726 -1.9423,0.43981 -2.6875,0.5625 -0.89417,0.1474 -1.55154,0.15138 -1.96875,0 -0.41716,-0.1513 -0.64815,-0.44649 -0.71875,-0.875 -0.0982,-0.5961 0.3099,-1.18882 1.25,-1.8125 0.94014,-0.6236 2.4129,-1.10949 4.40625,-1.4375 1.09447,-0.18025 2.15081,-0.29918 3.1875,-0.34375 0.38876,-0.0167 0.77528,-0.0338 1.15625,-0.0312 z m 58.96875,11.875 0.65625,3.46875 c 5.0866,1.29354 10.07436,2.83573 14.9375,4.625 l -1.25,2.875 -18.65625,3.46875 0.84375,5.5 c 6.03046,3.17639 9.18809,7.72833 9.5,13.625 l 2.96875,4.21875 11.25,-27.84375 c 1.09369,0.44429 2.20037,0.87482 3.28125,1.34375 l 0.21875,0.0937 c 0.009,0.004 0.0225,-0.004 0.0312,0 0.9732,0.41764 1.85671,2.69666 2.15625,4.5 0.30187,1.81751 0.21841,3.29372 -0.25,4.46875 l -7.0625,17.78125 3.40625,4.875 10.84375,-27.25 c 1.77788,0.92226 3.54817,1.85622 5.28125,2.84375 l -0.71875,-4.0625 c -1.18558,-0.64881 -2.38835,-1.28853 -3.59375,-1.90625 -0.28898,-0.45162 -0.299,-0.67013 -0.375,-1.21875 -0.076,-0.54857 -0.17279,-1.46691 -0.28125,-2.75 -0.10845,-1.28302 -0.72516,-2.16025 -1.8125,-2.59375 l -3.21875,8.125 c -0.28928,-1.51772 -1.231,-3.48567 -1.6875,-4.125 -0.45654,-0.63929 -1.05135,-1.45188 -2.125,-1.90625 l -0.5625,-0.21875 0,-0.0312 c -0.30963,-0.13177 -0.6268,-0.24518 -0.9375,-0.375 -7.34697,-3.06991 -14.98392,-5.61234 -22.84375,-7.53125 z M 120.5183,739.3125 c -1.43905,0.0238 -2.87134,0.31532 -4.3125,0.90625 -2.00889,0.82378 -3.36703,1.98788 -4.09375,3.5 -0.72674,1.51217 -0.78661,3.05653 -0.15625,4.59375 0.54438,1.32764 1.44305,2.26432 2.71875,2.8125 1.27569,0.54825 2.5924,0.55157 3.9375,0 1.27519,-0.52288 2.17648,-1.35113 2.6875,-2.46875 0.51096,-1.11757 0.48187,-2.35986 -0.0625,-3.6875 -0.28654,-0.69872 -0.7325,-1.29853 -1.34375,-1.84375 0.10078,-0.10251 0.2628,-0.20965 0.4375,-0.28125 1.24026,-0.50855 2.5198,-0.43013 3.875,0.1875 1.35516,0.61766 2.34554,1.66775 2.96875,3.1875 0.72344,1.76435 0.66131,3.5571 -0.1875,5.34375 -0.84885,1.7867 -2.37526,3.12156 -4.59375,4.03125 -2.76006,1.13177 -5.77359,1.05741 -9.03125,-0.21875 -3.25766,-1.27611 -6.68944,-4.01114 -10.3125,-8.21875 l -2.78125,0.21875 c 4.37065,6.32936 8.64982,10.54792 12.8125,12.6875 4.16266,2.1396 8.01635,2.48536 11.5625,1.03125 3.38889,-1.38962 5.61858,-3.43183 6.6875,-6.125 1.06887,-2.69313 0.9625,-5.57805 -0.3125,-8.6875 -1.24639,-3.03952 -3.31366,-5.10084 -6.1875,-6.1875 -1.43694,-0.54329 -2.87345,-0.80507 -4.3125,-0.78125 z m 103.15625,3.65625 -4.65625,11.6875 c -0.97551,-3.72219 -2.7158,-6.97299 -5.21875,-9.71875 l 9.875,-1.96875 z m 31.0937,4.53125 c -0.67199,0.0134 -1.3361,0.15033 -2,0.375 -1.77041,0.5992 -3.08419,1.74238 -3.9375,3.46875 -0.85339,1.72642 -0.96207,3.4452 -0.3125,5.15625 0.64954,1.71109 1.87906,2.99659 3.65625,3.875 1.84486,0.91191 3.64429,1.07211 5.40625,0.46875 1.76192,-0.60334 3.09029,-1.78531 3.96875,-3.5625 0.85329,-1.72639 0.94332,-3.4393 0.28125,-5.125 -0.66213,-1.68565 -1.87911,-2.9653 -3.65625,-3.84375 -1.14249,-0.56469 -2.28626,-0.83478 -3.40625,-0.8125 z m 1.15625,3.6875 c 0.54045,0.0144 1.04886,0.13658 1.53125,0.375 0.72776,0.35977 1.19214,0.87786 1.40625,1.53125 0.21406,0.65341 0.15548,1.30607 -0.1875,2 -0.49361,0.99862 -1.33421,1.70579 -2.53125,2.125 -1.19708,0.4192 -2.28527,0.41438 -3.25,-0.0625 -0.71089,-0.35135 -1.16503,-0.87952 -1.375,-1.5625 -0.21002,-0.68295 -0.15552,-1.36853 0.1875,-2.0625 0.46847,-0.9478 1.30292,-1.64326 2.5,-2.0625 0.59852,-0.20957 1.1783,-0.29566 1.71875,-0.28125 z m 14,4 -0.9375,3.34375 c 5.71843,4.54921 11.1168,9.50184 16.125,14.8125 l -6.21875,5.59375 c 1.11085,-3.55418 1.09104,-5.9455 -0.0625,-7.21875 -0.62118,-0.68559 -1.43266,-0.99865 -2.40625,-0.90625 -0.97366,0.0923 -2.08828,0.58319 -3.375,1.46875 0.99118,-4.10811 0.59397,-7.15542 -1.21875,-9.15625 -1.38177,-1.52507 -3.09777,-2.21196 -5.125,-2.03125 -2.02727,0.18074 -3.86299,1.01687 -5.5,2.5 -2.09877,1.9015 -3.26905,4.11012 -3.5,6.625 -0.23095,2.51489 0.39861,4.59244 1.84375,6.1875 1.02678,1.13332 2.12332,1.6966 3.34375,1.75 1.22038,0.0535 2.29201,-0.3137 3.1875,-1.125 0.76952,-0.69722 1.20452,-1.58341 1.3125,-2.6875 0.10789,-1.10412 -0.20819,-2.098 -0.96875,-2.9375 -0.79864,-0.88147 -1.74118,-1.2908 -2.8125,-1.25 -1.07135,0.0407 -2.09446,0.50949 -3.0625,1.4375 -0.22325,-0.89319 -0.18873,-1.6917 0.0937,-2.40625 0.2825,-0.71454 0.74863,-1.37294 1.40625,-1.96875 0.93743,-0.84932 2.02651,-1.25375 3.28125,-1.21875 1.2547,0.0352 2.38032,0.59289 3.34375,1.65625 0.97607,1.07738 1.53707,2.41082 1.6875,3.96875 0.15037,1.55793 -0.1001,3.371 -0.75,5.4375 l 0.9375,1.90625 c 0.56622,-0.64041 0.98741,-1.10879 1.28125,-1.375 0.88145,-0.79862 1.682,-1.28392 2.40625,-1.46875 0.7242,-0.18484 1.28772,-0.0382 1.71875,0.4375 0.53242,0.58765 0.69253,1.55997 0.4375,2.9375 -0.2551,1.37755 -1.14518,2.75592 -2.65625,4.125 l -8.28125,7.5 0.90625,5.90625 22.125,-20 c 0.81481,0.92347 1.61411,1.86904 2.40625,2.8125 l 0.15625,0.1875 c 0.024,0.0287 0.0385,0.0652 0.0625,0.0937 0.63698,0.84761 0.60367,2.92095 0.0937,4.625 -0.52817,1.76508 -1.25008,3.05694 -2.1875,3.90625 l -14.1875,12.84375 0.9375,5.875 21.46875,-19.4375 c 2.62777,3.5982 5.09749,7.32688 7.40625,11.15625 -1.88697,-0.68691 -4.09941,-1.07504 -6.4375,-1.0625 -2.34928,0.0126 -4.74486,0.59118 -7.21875,1.71875 -3.88267,1.76965 -6.77939,4.4472 -8.65625,8 -1.87687,3.55278 -2.15924,6.77002 -0.84375,9.65625 0.68124,1.49463 1.6158,2.50823 2.8125,3.0625 1.19668,0.5542 2.3802,0.55591 3.53125,0.0312 1.0136,-0.46201 1.74402,-1.19719 2.1875,-2.25 0.44345,-1.05283 0.39962,-2.16146 -0.125,-3.3125 -0.51682,-1.13388 -1.24495,-1.88065 -2.1875,-2.21875 -0.94256,-0.33812 -1.89887,-0.27443 -2.84375,0.15625 l -0.125,0.0625 c -0.23784,-1.842 0.18844,-3.6215 1.28125,-5.34375 1.09277,-1.72226 2.63212,-3.02919 4.625,-3.9375 3.02364,-1.37814 6.6047,-1.37858 10.75,0 4.14523,1.3786 8.10552,4.05092 10.15625,8.28125 l 0.59375,1.1875 c 0.10228,0.21874 0.21124,0.43694 0.3125,0.65625 l -15.75,7.21875 -1.84375,5.96875 c 5.97368,1.63453 10.42018,3.21543 13.3125,4.78125 -1.70585,0.44551 -3.32882,1.01401 -4.875,1.71875 -3.9342,1.79314 -7.66365,4.82126 -11.1875,9.0625 l 0.34375,2.40625 c 2.88783,-2.76867 5.97174,-4.86383 9.21875,-6.34375 3.59057,-1.63655 8.00922,-2.47275 13.28125,-2.46875 l 0.53125,-6.59375 c -3.91822,-2.40542 -8.14525,-4.34525 -12.6875,-5.84375 l 11.65625,-5.34375 c 3.23488,7.66284 5.85806,15.63262 7.8125,23.875 0.3963,1.67128 -0.47818,3.37914 -2.21875,4.96875 -1.82101,-1.3118 -3.43026,-2.26366 -4.8125,-2.8125 -1.38227,-0.54894 -2.67619,-0.74493 -3.875,-0.59375 -1.06773,0.13463 -1.87739,0.5609 -2.4375,1.25 -0.56018,0.68908 -0.78346,1.51968 -0.65625,2.53125 0.222,1.76079 1.79894,3.16253 4.6875,4.1875 -1.16312,0.73656 -2.05883,1.52896 -2.65625,2.375 -0.59746,0.84602 -0.84596,1.76968 -0.71875,2.78125 0.12989,1.03025 0.56641,1.83713 1.28125,2.375 0.71481,0.53784 1.55717,0.71659 2.53125,0.59375 1.23629,-0.15589 2.45364,-0.72302 3.65625,-1.75 1.20256,-1.02701 2.41304,-2.44556 3.59375,-4.25 1.50219,1.04752 2.27305,1.84425 2.34375,2.40625 0.10152,0.80546 -0.67608,2.13412 -2.34375,4 -1.66772,1.86583 -3.32037,2.91717 -4.96875,3.125 l -16.375,2.0625 -2.59375,5.34375 29.28125,-3.75 0.0312,0 c 0.13129,1.94927 0.22483,3.90497 0.28125,5.875 l 3.09375,-2.53125 c -0.0592,-1.3386 -0.15699,-2.67267 -0.25,-4 l 0.0312,0 c 0.20868,-0.43845 0.27529,-0.54318 0.71875,-0.875 0.44338,-0.33186 1.17934,-0.84712 2.25,-1.5625 1.07056,-0.71543 1.55266,-1.65114 1.40625,-2.8125 l -10.90625,1.375 c 3.30549,-3.21417 4.82278,-5.74554 4.59375,-7.5625 -0.20552,-1.62969 -1.67119,-3.45934 -4.40625,-5.53125 1.24898,-1.41345 2.13795,-2.63583 2.4375,-3.6875 0.4223,-1.48266 0.43222,-2.95153 0.15625,-4.125 -2.60176,-11.06314 -6.43815,-21.65614 -11.28125,-31.65625 -4.16277,-8.59535 -9.07427,-16.75073 -14.6875,-24.375 0.11764,-0.48875 0.29574,-1.03635 0.46875,-1.5625 0.17295,-0.52611 0.50186,-1.39372 0.96875,-2.59375 0.46682,-1.19999 0.28592,-2.22624 -0.5,-3.09375 l -6.46875,5.875 c 0.40756,-1.4903 0.47259,-3.31879 0.34375,-4.09375 -0.12889,-0.77491 -0.44462,-1.82653 -1.28125,-2.75 l -0.5,-0.5625 c -0.18776,-0.21996 -0.37354,-0.43734 -0.5625,-0.65625 -6.62896,-7.67965 -14.00038,-14.71568 -22,-20.96875 z m -23.6875,5.46875 -3.9375,2.96875 c 3.12198,5.06028 5.65808,11.23065 7.625,18.5 l 1.59375,-3.25 c -0.36083,-3.19003 -0.97356,-6.40961 -1.875,-9.65625 -0.90149,-3.24664 -2.03554,-6.0948 -3.40625,-8.5625 z m -196.84375,37.6875 1.75,7.46875 c -2.484101,-0.51832 -4.243933,0.11023 -5.28125,1.84375 -0.35868,0.59946 -0.56619,1.13809 -0.65625,1.65625 -0.872189,-1.00593 -1.424716,-2.17158 -1.65625,-3.53125 -0.231501,-1.35963 0.02727,-2.68767 0.8125,-4 1.008236,-1.6849 2.690958,-2.83565 5.03125,-3.4375 z M 36.612,813.875 l -3.90625,0.9375 c -0.567011,1.30491 -1.120393,2.60134 -1.65625,3.90625 -0.482498,0.14112 -0.70752,0.16955 -1.25,0.28125 -0.542432,0.11172 -1.44549,0.27677 -2.71875,0.46875 -1.273204,0.19205 -2.107214,0.85542 -2.46875,1.96875 l 13.21875,4.28125 c -6.284639,1.07592 -9.950436,3.23646 -11,6.46875 -0.705495,2.17285 -0.333326,4.22394 1.09375,6.15625 1.427128,1.93233 3.445422,3.31663 6.03125,4.15625 2.909099,0.94463 5.543557,0.91718 7.90625,-0.0625 2.36272,-0.97966 3.874479,-2.50603 4.5625,-4.625 0.472297,-1.45453 0.427462,-2.79682 -0.125,-3.96875 -0.552446,-1.17189 -1.443772,-1.96099 -2.71875,-2.375 -1.167213,-0.379 -2.315835,-0.30184 -3.4375,0.1875 -1.121636,0.4894 -1.878911,1.3547 -2.28125,2.59375 -0.355661,1.0954 -0.328211,2.0675 0.09375,2.96875 0.421995,0.90128 1.089559,1.56248 2,1.9375 -1.438,0.88292 -2.915777,1.07772 -4.40625,0.59375 -1.292906,-0.41979 -2.21443,-1.18407 -2.78125,-2.28125 -0.566776,-1.09714 -0.650204,-2.29615 -0.21875,-3.625 0.536451,-1.65206 1.769197,-3.0519 3.65625,-4.15625 1.887089,-1.10432 4.139645,-1.84868 6.78125,-2.28125 l 14.4375,4.6875 4.625,-3.75 -27.8125,-9.03125 c 0.73992,-1.81849 1.565705,-3.61901 2.375,-5.4375 z m -9.9375,28.9375 -3.625,1.71875 c -0.294779,1.3385 -0.559309,2.73439 -0.8125,4.0625 -0.445461,0.29296 -0.776341,0.42861 -1.28125,0.65625 -0.504848,0.22769 -1.362089,0.56535 -2.5625,1.03125 -1.200345,0.46596 -1.859542,1.30331 -1.96875,2.46875 l 12.875,1.1875 c -5.293092,2.86063 -8.124908,6.30856 -8.5,10.3125 -0.255293,2.72571 0.494926,5.08047 2.25,7.09375 1.755129,2.01328 3.962066,3.15974 6.59375,3.40625 1.315875,0.12327 2.37379,-0.0756 3.21875,-0.59375 0.844997,-0.51818 1.31999,-1.23515 1.40625,-2.15625 0.04228,-0.45115 0.0022,-0.85602 -0.125,-1.21875 -0.127189,-0.36273 -0.57321,-1.23489 -1.34375,-2.625 -0.770502,-1.39008 -1.11927,-2.56008 -1.03125,-3.5 0.06517,-0.6955 0.299075,-1.23202 0.71875,-1.5625 0.419713,-0.33041 0.948532,-0.46085 1.53125,-0.40625 2.199371,0.20603 4.310268,2.90937 6.34375,8.125 l 4.84375,-5 c -1.274867,-1.97776 -2.657621,-3.5175 -4.15625,-4.625 -1.498609,-1.10747 -3.03351,-1.72883 -4.59375,-1.875 -2.142945,-0.20072 -3.956187,0.27077 -5.46875,1.4375 -1.512524,1.16677 -2.350304,2.55844 -2.5,4.15625 -0.109149,1.16548 0.20382,2.51175 0.96875,4.0625 -1.320543,-0.2754 -2.34262,-0.88494 -3.09375,-1.875 -0.75108,-0.99005 -1.076581,-2.2337 -0.9375,-3.71875 0.220133,-2.34972 1.56086,-4.46453 4,-6.3125 2.439184,-1.84793 4.744507,-2.67122 6.90625,-2.46875 l 14.4375,1.375 3.71875,-4.65625 -29.03125,-2.75 c 0.372865,-1.90734 0.783573,-3.82188 1.21875,-5.75 z"
           id="path4782"
           inkscape:connector-curvature="0" />
        <path
           style="font-size:58px;font-style:normal;font-variant:normal;font-weight:bold;font-stretch:normal;text-align:start;line-height:125%;letter-spacing:3px;word-spacing:0px;writing-mode:lr-tb;text-anchor:start;fill:#006a4e;fill-opacity:1;stroke:none;font-family:Shonar Bangla;-inkscape-font-specification:Shonar Bangla Bold"
           d="m 116.53132,990.68248 0.90625,4.0625 c 0.32144,0.15795 0.64583,0.31338 0.96875,0.46875 l -0.28125,4.4375 c 1.67786,0.92327 3.01719,1.80617 4,2.68757 0.98277,0.8813 1.66187,1.7576 2,2.625 0.33811,0.8672 0.32214,1.8272 -0.0312,2.8437 -0.13023,0.3745 -0.30569,0.7324 -0.53125,1.0937 -1.34202,0.8127 -2.67481,1.5031 -3.96875,2.0626 -1.29396,0.5593 -2.32695,0.7042 -3.09375,0.4374 -0.74899,-0.2604 -1.04876,-1.273 -0.90625,-3.0624 l -2.5,0 c -0.0114,2.7345 0.24382,4.8012 0.78125,6.1874 0.53741,1.3864 1.28702,2.259 2.25,2.5938 0.7668,0.2666 1.76936,0.1839 2.96875,-0.2188 1.19936,-0.4021 3.26943,-1.4541 6.25,-3.1562 2.98053,-1.702 4.85816,-2.423 5.625,-2.1562 0.69546,0.2418 1.18809,1.0152 1.4375,2.2812 0.24935,1.2661 0.0447,2.8555 -0.625,4.7812 l -2.90625,8.3126 3.625,4.7187 9.6875,-27.7813 c 5.85729,1.5123 11.88459,2.6187 18.03125,3.3126 l -0.25,1.8437 -17.3125,7.7813 2.125,5.1562 c 6.6094,1.6648 10.74392,5.3431 12.4375,11 l 3.90625,3.4062 4.0625,-28.7187 c 3.24007,0.2413 6.51121,0.375 9.8125,0.375 2.24117,0 4.47552,-0.045 6.6875,-0.1563 l 0.1875,2.125 -15.09375,11.5626 3.25,4.5312 c 6.815,0.1086 11.71347,2.7242 14.65625,7.8438 l 4.5625,2.4374 -1.96875,-21.9687 0.84375,-0.094 c 2.72664,-0.2448 4.73647,0.041 6.03125,0.8437 1.29474,0.8032 2.0102,1.8462 2.125,3.125 0.0709,0.7897 -0.0684,1.4663 -0.375,2.0625 -0.87061,-1.0404 -1.86539,-1.5109 -3.03125,-1.4062 -1.03428,0.093 -1.86366,0.5254 -2.46875,1.2812 -0.60513,0.7556 -0.87575,1.6658 -0.78125,2.7188 0.0996,1.1093 0.56417,1.9964 1.34375,2.6562 0.77953,0.6598 1.74032,0.9479 2.90625,0.8438 1.56076,-0.1404 2.84255,-0.9513 3.875,-2.4376 1.0324,-1.4857 1.47534,-3.3374 1.28125,-5.5 -0.26166,-2.9146 -1.60341,-5.2 -4.03125,-6.9062 -2.42791,-1.706 -5.17203,-2.4761 -8.1875,-2.2812 l -0.15625,-1.7813 c 3.25286,-0.2874 6.47376,-0.6943 9.65625,-1.2187 0.1049,-0.017 0.21548,-0.033 0.32031,-0.051 1.12269,-0.1235 2.3021,0.5991 3.55469,1.9259 1.26469,1.3398 2.04553,2.6072 2.3125,3.8437 l 4.03125,18.6875 5.5625,2.1562 -6.125,-28.375 -0.0312,-0.1562 c 5.5524,-1.3447 10.96798,-3.0315 16.21875,-5.06252 l 0.71875,1.96872 -11.53125,15.0938 4.34375,3.5 c 6.60417,-1.6855 12.00327,-0.4166 16.1875,3.75 l 5.03125,1.125 -10.1875,-27.31252 c 1.68575,-0.72672 3.35215,-1.48647 5,-2.28125 l -2.8125,-2.21875 c -7.56918,3.5353 -15.55215,6.33699 -23.84375,8.34372 -0.353,-0.3212 -0.77674,-0.5792 -1.125,-0.9687 -0.36921,-0.41284 -0.94406,-1.12092 -1.75,-2.12502 -0.80594,-1.0042 -1.7933,-1.40325 -2.9375,-1.15625 l 1.84375,8.56257 c -1.08695,-1.0981 -2.23317,-2.0368 -2.96875,-2.3126 -0.73554,-0.2753 -1.69182,-0.2148 -2.92188,-0.015 l -0.70312,0.1094 c -6.35963,0.9794 -12.86943,1.5 -19.5,1.5 -21.07821,0 -40.95328,-5.13128 -58.46875,-14.18752 z m 6.59375,6.6875 c 4.61835,1.9992 9.37383,3.72532 14.25,5.18752 l -3.3125,9.5 c -0.67565,-3.633 -1.72064,-5.6788 -3.09375,-6.1563 -0.78466,-0.2726 -2.1331,0.1528 -4.09375,1.25 0.34099,-1.4402 0.22662,-2.9861 -0.34375,-4.5937 -0.55004,-1.5501 -1.68103,-3.54245 -3.40625,-5.18752 z m 101.71875,9.18752 4.375,11.7813 c -3.21904,-2.1083 -6.67708,-3.3592 -10.375,-3.7188 z m -65.65625,8.0937 -1.78125,12.4376 c -1.82572,-3.3876 -4.29518,-6.1095 -7.375,-8.1876 z m 23.1875,1 1.125,12.5313 c -2.55219,-2.8796 -5.55769,-4.994 -9.03125,-6.3125 z m 40.375,6.9063 c -0.46345,-0.014 -0.92834,0.073 -1.40625,0.25 -0.95586,0.3548 -1.61936,0.9771 -2.03125,1.875 -0.41189,0.898 -0.44845,1.8254 -0.0937,2.7813 0.3547,0.9557 0.97703,1.6192 1.875,2.0312 0.89794,0.4121 1.82539,0.4484 2.78125,0.094 0.95583,-0.3549 1.65059,-0.9773 2.0625,-1.875 0.41188,-0.8981 0.41719,-1.8255 0.0625,-2.7813 -0.3547,-0.9558 -0.97705,-1.6506 -1.875,-2.0625 -0.44898,-0.206 -0.91155,-0.2982 -1.375,-0.3125 z m -75.125,4.6563 c -0.7159,0.03 -1.37627,0.2738 -1.96875,0.7187 -0.78999,0.5933 -1.23143,1.3967 -1.375,2.4063 -0.14358,1.0091 0.063,1.8978 0.65625,2.6874 0.59322,0.7903 1.39687,1.2627 2.40625,1.4063 1.00936,0.1436 1.89751,-0.063 2.6875,-0.6563 0.78997,-0.5929 1.26267,-1.3968 1.40625,-2.4062 0.14356,-1.0094 -0.063,-1.9285 -0.65625,-2.7188 -0.59324,-0.7896 -1.39689,-1.2626 -2.40625,-1.4062 -0.25234,-0.036 -0.51137,-0.042 -0.75,-0.031 z"
           id="path5206"
           inkscape:connector-curvature="0"
           sodipodi:nodetypes="cccccccccccccscccccccccccccccsccccccccccccccccccccccccccccccccccccccccccccccscccccccccccccccccsccsccccccscsccccscccscccc" />
      </g>
    </g>
  </g>
</svg>
